<svg width="28" height="27" viewBox="0 0 28 27" fill="none" xmlns="http://www.w3.org/2000/svg">
    <path d="M19.5999 13.8328C19.4665 13.8328 19.339 13.8159 19.2172 13.7821C19.0945 13.7493 18.9776 13.6884 18.8665 13.5995C16.9999 11.9328 15.3999 10.3381 14.0665 8.81548C12.7332 7.2937 12.0665 5.88837 12.0665 4.59948C12.0665 3.48837 12.4501 2.54926 13.2172 1.78215C13.9834 1.01592 14.9221 0.632812 16.0332 0.632812C16.6999 0.632812 17.3443 0.788368 17.9665 1.09948C18.5888 1.41059 19.1332 1.86615 19.5999 2.46615C20.0888 1.86615 20.6385 1.41059 21.2492 1.09948C21.8608 0.788368 22.4999 0.632812 23.1665 0.632812C24.2999 0.632812 25.2443 1.01592 25.9999 1.78215C26.7554 2.54926 27.1332 3.48837 27.1332 4.59948C27.1332 5.88837 26.4665 7.2937 25.1332 8.81548C23.7999 10.3381 22.1999 11.9328 20.3332 13.5995C20.2443 13.6884 20.1332 13.7493 19.9999 13.7821C19.8665 13.8159 19.7332 13.8328 19.5999 13.8328ZM19.5999 11.4995C21.0221 10.2328 22.2999 8.97148 23.4332 7.71548C24.5665 6.46037 25.1332 5.4217 25.1332 4.59948C25.1332 4.0217 24.9496 3.54926 24.5825 3.18215C24.2163 2.81592 23.7443 2.63281 23.1665 2.63281C22.8332 2.63281 22.4888 2.71592 22.1332 2.88215C21.7776 3.04926 21.4332 3.35503 21.0999 3.79948L19.5999 5.59948L18.0999 3.79948C17.7665 3.35503 17.4221 3.04926 17.0665 2.88215C16.711 2.71592 16.3665 2.63281 16.0332 2.63281C15.4554 2.63281 14.9834 2.81592 14.6172 3.18215C14.2501 3.54926 14.0665 4.0217 14.0665 4.59948C14.0665 5.4217 14.6332 6.46037 15.7665 7.71548C16.8999 8.97148 18.1776 10.2328 19.5999 11.4995ZM16.7665 24.6661C16.811 24.6884 16.8501 24.6995 16.8839 24.6995C16.9168 24.6995 16.9554 24.6884 16.9999 24.6661L24.8332 22.2328C24.7665 21.9217 24.6221 21.6884 24.3999 21.5328C24.1776 21.3773 23.9332 21.2995 23.6665 21.2995H17.1665C16.5665 21.2995 16.0665 21.2719 15.6665 21.2168C15.2665 21.1608 14.8443 21.0661 14.3999 20.9328L12.3332 20.2661C12.0443 20.1773 11.8443 20.0053 11.7332 19.7501C11.6221 19.4941 11.611 19.2217 11.6999 18.9328C11.7888 18.6884 11.9554 18.5048 12.1999 18.3821C12.4443 18.2604 12.6999 18.2328 12.9665 18.2995L14.6999 18.9328C15.0999 19.0439 15.5501 19.127 16.0505 19.1821C16.5501 19.2381 17.1999 19.2773 17.9999 19.2995H18.3332C18.3332 18.9661 18.2612 18.6773 18.1172 18.4328C17.9723 18.1884 17.7776 18.0328 17.5332 17.9661L9.79987 15.0995H7.19987V21.9661L16.7665 24.6661ZM16.2332 26.6328L7.19987 24.0328C7.04431 24.5884 6.7332 25.0328 6.26654 25.3661C5.79987 25.6995 5.29987 25.8661 4.76654 25.8661H2.9332C2.26654 25.8661 1.69987 25.627 1.2332 25.1488C0.766536 24.6715 0.533203 24.0995 0.533203 23.4328V15.4995C0.533203 14.8328 0.766536 14.2661 1.2332 13.7995C1.69987 13.3328 2.26654 13.0995 2.9332 13.0995H9.6332C9.78876 13.0995 9.9332 13.1106 10.0665 13.1328C10.1999 13.155 10.3332 13.1884 10.4665 13.2328L18.2332 16.0995C18.8332 16.3217 19.3332 16.7159 19.7332 17.2821C20.1332 17.8493 20.3332 18.5217 20.3332 19.2995H23.6665C24.6221 19.2995 25.4056 19.6053 26.0172 20.2168C26.6279 20.8275 26.9332 21.6328 26.9332 22.6328C26.9332 23.0106 26.8332 23.3164 26.6332 23.5501C26.4332 23.783 26.1221 23.9661 25.6999 24.0995L17.6332 26.5995C17.411 26.6661 17.1776 26.7053 16.9332 26.7168C16.6888 26.7275 16.4554 26.6995 16.2332 26.6328ZM2.5332 23.4328C2.5332 23.5661 2.57231 23.6719 2.65054 23.7501C2.72787 23.8275 2.82209 23.8661 2.9332 23.8661H4.76654C4.89987 23.8661 5.00565 23.8328 5.08387 23.7661C5.1612 23.6995 5.19987 23.5884 5.19987 23.4328V15.0995H2.9332C2.82209 15.0995 2.72787 15.1381 2.65054 15.2155C2.57231 15.2937 2.5332 15.3884 2.5332 15.4995V23.4328Z" fill="#194B9B"/>
</svg>